<svg viewBox="0 0 63 48" width="60px" height="49px" version="1.1" xmlns="http://www.w3.org/2000/svg">
<g>
<path fill="#777" d="M35.752 7.65c-1.1 0-2.1.45-2.85 1.2a3.97 3.97 0 0 0 .1 5.651c.75.7 1.7 1.1 2.75 1.1a4.01 4.01 0 0 0 2.851-1.2c.75-.8 1.149-1.8 1.1-2.85 0-1.05-.451-2.05-1.201-2.8a4.072 4.072 0 0 0-2.75-1.1m-.002 9.15c-1.35 0-2.65-.5-3.6-1.45-2.05-1.95-2.101-5.25-.15-7.3 1-1.05 2.3-1.6 3.75-1.6 1.35 0 2.6.5 3.6 1.45.95.95 1.55 2.25 1.55 3.65.05 1.35-.5 2.65-1.45 3.65-.95 1.05-2.3 1.6-3.7 1.6m-2.148 9.701a.727.727 0 0 1-1.05 0l-5.3-5.05c-.3-.3-.3-.75 0-1.05.25-.3.75-.3 1.05-.05l5.25 5.1c.3.3.3.75.05 1.05m-5.95-10.05l-4.55.098v-1.799c0-.4-.35-.7-.75-.7-.401 0-.701.3-.701.7l.05 2.55c0 .3.2.55.45.65.101.05.15.05.25.05l5.301-.1c.4 0 .7-.3.7-.7 0-.4-.35-.75-.75-.75m.1 16.15a.723.723 0 0 1-1.05 0l-5.301-5.099c-.3-.25-.3-.75 0-1.05.25-.25.75-.3 1 0l5.301 5.1c.3.25.3.75.05 1.05m-5.951-10.05l-4.55.1v-1.8c-.05-.4-.35-.75-.75-.75-.4.05-.75.35-.7.75v2.55c.05.3.2.55.5.65.05.05.15.05.25.05l5.25-.1c.4 0 .75-.35.75-.75s-.35-.7-.75-.7m.25 15.95c-.299.3-.75.3-1.049 0l-5.301-5.1c-.3-.25-.3-.75 0-1.05.3-.25.75-.3 1.05 0l5.251 5.1c.299.25.35.75.049 1.05m-5.95-10.05l-4.5.1-.05-1.8c0-.4-.35-.75-.75-.75-.401.05-.7.35-.7.75l.049 2.55c0 .3.201.55.451.65.1.05.2.05.3.05l5.25-.1c.4 0 .7-.35.7-.75s-.35-.7-.75-.7M43.903 4.9c0-.5-.122-.876-.35-1.1-.279-.274-.65-.3-.85-.3H42.402c-.799.05-1.85.05-3.049.05-5.551 0-13.151-.35-13.851-.35-.15 0-.3.05-.45.2L1.4 27.952c-.1.15-.2.3-.2.5s.1.35.25.5l18.301 17.65c.25.25.751.25 1.001-.05l23.651-24.55c.153-.197.198-.488.2-.7M20.252 48.002a1.937 1.937 0 0 1-1.351-.55L.6 29.801c-.35-.349-.6-.799-.6-1.299 0-.55.2-1 .55-1.4L24.202 2.548c.3-.299.699-.5 1.15-.549h.15c.1 0 8.1.35 13.851.35 1.149 0 2.149 0 3-.05h.35c.7 0 1.3.2 1.75.65.45.45.65 1.1.65 1.95.05.85.705 14.126.65 16.551-.011.502-.15 1-.5 1.4L21.602 47.403c-.35.35-.85.6-1.35.6"></path>        <path d="M62.004 0c-2.95 6.4-12.651 6.4-12.651 6.4-7.05.1-10.951 2.25-12.751 3.601-.7-.351-1.55-.2-2.1.35-.7.7-.65 1.85.05 2.549.7.651 1.85.651 2.5-.049.55-.55.65-1.3.4-1.951 5.05-3.5 11.9-3.299 11.9-3.299C60.105 7.601 62.855.6 62.855.6l-.85-.6z"></path></g></svg>