<svg viewBox="0 0 145 48" width="140px" height="49px" version="1.1" xmlns="http://www.w3.org/2000/svg">
<path fill="#777" d="M138.211 44.009c-.398 0-.697.349-.697.748 0 .398.3.698.697.698.4 0 .749-.3.749-.698 0-.4-.35-.748-.749-.748zm-4.19 2.593h8.682V28.191h-8.682v18.411zm-.05-19.807h8.732c.798 0 1.396.598 1.396 1.396v18.362c0 .798-.598 1.447-1.396 1.447h-8.732c-.749 0-1.397-.649-1.397-1.447V28.191c0-.798.648-1.396 1.397-1.396zM74.095 44.009h48.7V13.173h-48.7v30.836zm0-32.233h48.75c.748 0 1.396.648 1.396 1.446v30.787c0 .798-.648 1.396-1.397 1.396H74.095c-.797 0-1.396-.598-1.396-1.396V13.222c0-.798.599-1.446 1.396-1.446zm56.583 34.677v.649c0 .499-.799.898-1.747.898H67.66c-.998 0-1.746-.4-1.746-.898v-.649h64.764zm-111.567.898v-2.445c0-.798.648-1.446 1.396-1.446h29.688c.799 0 1.397.648 1.397 1.446v2.445h-1.397v-2.494H20.557v2.494H19.11zM1.397 41.065h68.208V1.397H1.397v39.668zM1.397 0h68.208c.799 0 1.447.599 1.447 1.397v39.668c0 .748-.648 1.396-1.447 1.396H1.397A1.394 1.394 0 0 1 0 41.065V1.397C0 .599.599 0 1.397 0z"></path></svg>